<svg width="640" height="480" xmlns="http://www.w3.org/2000/svg">
 <!-- Created with SVG-edit - http://svg-edit.googlecode.com/ -->
 <g>
  <title>Layer 1</title>
  <rect stroke="#000000" id="svg_1" height="433.999979" width="450.99999" y="29" x="96.00001" stroke-width="5" fill="#ffff00"/>
  <path d="m141,105c0,0 -0.480545,-2.038734 0,-5c0.506546,-3.121445 2,-6 2,-9c0,-3 0,-9 0,-16c0,-4 0,-6 0,-8c0,-1 0,-2 0,-3c0,-1 1,-1 2,-1c1,0 2,0 3,0c1,0 2,0 4,0c2,0 4,0 6,0c1,0 3.076126,-0.382683 4,0c1.306564,0.541195 2.186005,0.692547 4,2c1.147263,0.826904 2,1 2,2c0,1 1,2 1,3c0,1 -0.292892,2.292892 -1,3c-0.707108,0.707108 -1.292892,0.292892 -2,1c-0.707108,0.707108 -0.292892,1.292892 -1,2c-0.707108,0.707108 -2,1 -3,1c-1,0 -2,0 -3,0c-1,0 -2,1 -3,1c-1,0 -2,0 -3,0c-1,0 -1,1 -2,1c-1,0 -3.541199,-0.306564 -3,1c0.38269,0.923882 1.693436,-0.458801 3,-1c0.923874,-0.382683 2,0 3,0c1,0 2,0 3,0c2,0 4.292892,0.292892 5,1c0.707108,0.707108 1.292892,0.292892 2,1c0.707108,0.707108 1,1 1,2c0,1 0.292892,1.292892 1,2c0.707108,0.707108 1,1 1,2c0,1 0,2 0,3c0,1 0,2 0,3c0,1 -1,1 -1,2c0,1 -0.693436,2.458801 -2,3c-0.923874,0.382683 -2.292892,-0.707108 -3,0c-0.707108,0.707108 -1.076126,0.617317 -2,1c-1.306564,0.541199 -2,1 -3,1c-1,0 -2,0 -3,0c-1,0 -2,0 -3,0c-1,0 -2,0 -3,1l-1,0l-1,0l0,1" id="svg_15" stroke-linecap="round" stroke-linejoin="null" stroke-dasharray="null" stroke-width="5" stroke="#000000" fill="none"/>
  <path d="m180,100c0,0 0,-1 0,-4c0,-2 1.173096,-3.85273 2,-5c1.307449,-1.813995 2,-3 3,-5c1,-2 2,-5 2,-7c0,-2 -0.707108,-3.292892 0,-4c0.707108,-0.707108 0.968552,-2.412071 3,-6c1.39357,-2.461296 2,-3 2,-4c0,-1 -0.902115,-2.824429 1,-4c0.850647,-0.52573 1.076126,-1.382683 2,-1c1.306564,0.541195 0.693436,2.458805 2,3c0.923874,0.382683 2,1 3,2c1,1 1,2 1,3c0,1 0,2 0,3c0,1 -0.38269,2.076118 0,3c0.541199,1.306564 2,3 2,5c0,1 0,2 0,3c0,1 0,2 0,3c0,1 1,1 1,2c0,1 0,2 0,3c0,1 0,2 0,3c0,1 0,2 0,3c0,1 0,2 0,3c0,1 0,2 0,3l0,1l0,1" id="svg_16" stroke-linecap="round" stroke-linejoin="null" stroke-dasharray="null" stroke-width="5" stroke="#000000" fill="none"/>
  <path d="m188,83c0,0 1,0 2,0c1,0 2,0 3,0c1,0 2,0 3,0c1,0 2,0 3,0l1,0" id="svg_17" stroke-linecap="round" stroke-linejoin="null" stroke-dasharray="null" stroke-width="5" stroke="#000000" fill="none"/>
  <path d="m218,101c0,0 0,-2 0,-3c0,-1 0,-2 0,-3c0,-2 0.496231,-5.907784 1,-10c0.24437,-1.985016 0,-3 0,-4c0,-1 0,-3 0,-4c0,-1 1,-2 1,-3c0,-1 0,-2 0,-3c0,-1 0,-2 0,-3c0,-1 0,-2 0,-3c0,-1 0.292892,-2.707108 1,-2c0.707108,0.707108 0,2 0,3c0,2 1.2565,2.796997 2,4c1.662506,2.689995 1.173096,3.85273 2,5c1.307449,1.813995 2.486252,1.823746 3,4c0.459503,1.946495 1.486252,2.823746 2,5c0.459503,1.946495 1,2 1,3c0,1 1,2 1,3c0,1 1,2 1,3c0,1 -0.707108,2.292892 0,3c0.707108,0.707108 1.292892,0.292892 2,1c0.707108,0.707108 1,1 2,1c1,0 2,0 2,-1c0,-1 1,-2 1,-3c0,-1 0,-2 0,-3c0,-1 0,-2 0,-4c0,-2 -1,-5 -1,-7c0,-1 0.38269,-2.076118 0,-3c-0.541199,-1.306564 -1.486252,-2.823746 -2,-5c-0.229752,-0.973251 0.38269,-2.076118 0,-3c-0.541199,-1.306564 -1,-2 -1,-3c0,-1 0,-2 0,-3l0,-1l0,-1l-1,0" id="svg_19" stroke-linecap="round" stroke-linejoin="null" stroke-dasharray="null" stroke-width="5" stroke="#000000" fill="none"/>
  <path d="m251,98c0,0 0,-1 0,-2c0,-1 0.493454,-2.878555 1,-6c0.160187,-0.987091 0,-2 0,-3c0,-2 0.486252,-3.823746 1,-6c0.459503,-1.946495 0,-5 0,-6c0,-2 0,-3 0,-4c0,-1 0.458801,-1.693436 1,-3c0.765366,-1.847755 1,-2 1,-4c0,-1 1,-1 1,-2c0,-1 1.149353,-1.52573 2,-1c1.9021,1.175571 0.61731,3.076118 1,4c0.541199,1.306564 1.486267,1.823746 2,4c0.229767,0.973251 0.770233,3.026749 1,4c0.513733,2.176254 1,3 2,4c1,1 0.770233,2.026749 1,3c0.513733,2.176254 1,3 1,4c0,1 1.458801,1.693436 2,3c0.38269,0.923882 1,3 1,4c0,1 0,2 0,3c0,1 0,2 0,3c0,1 0,2 0,3l0,1l0,1l0,1" id="svg_20" stroke-linecap="round" stroke-linejoin="null" stroke-dasharray="null" stroke-width="5" stroke="#000000" fill="none"/>
  <path d="m255,84c0,0 1,0 2,0c1,0 3,0 4,0c1,0 2.292908,0.707108 3,0c0.707092,-0.707108 1,-1 2,-1l1,0" id="svg_21" stroke-linecap="round" stroke-linejoin="null" stroke-dasharray="null" stroke-width="5" stroke="#000000" fill="none"/>
  <path d="m282,99c0,0 0,-2 0,-5c0,-2 0,-4 0,-5c0,-3 -0.283569,-6.010063 0,-10c0.501251,-7.053276 2.493469,-13.878555 3,-17c0.160187,-0.987087 -0.707092,-2.292892 0,-3c0.707092,-0.707108 2,0 2,1c0,1 0.173096,1.85273 1,3c1.307465,1.813995 2.534912,3.310753 4,5c2.07193,2.388954 2.337494,5.310005 4,8c1.487,2.406006 2,5 3,7c1,2 2,4 2,6c0,2 1.458801,2.693436 2,4c0.38269,0.923882 -0.707092,2.292892 0,3c0.707092,0.707108 1,1 1,2c0,1 -0.707092,2.292892 0,3c0.707092,0.707108 1,1 2,1c1,0 1.540497,-2.053505 2,-4c0.513733,-2.176254 1,-3 1,-4c0,-1 0.459503,-2.053505 0,-4c-0.513733,-2.176254 -1.190277,-3.881523 -3,-7c-1.122345,-1.933998 -0.337494,-5.310005 -2,-8c-0.7435,-1.203003 -1,-2 -1,-3c0,-2 0,-3 0,-5c0,-1 -0.292908,-1.292892 -1,-2c-0.707092,-0.707108 0,-2 0,-3l0,-1" id="svg_22" stroke-linecap="round" stroke-linejoin="null" stroke-dasharray="null" stroke-width="5" stroke="#000000" fill="none"/>
  <path d="m322,98c0,0 0,-1 0,-3c0,-2 -0.118652,-7.025208 1,-12c0.904572,-4.022659 2,-9 3,-12c1,-3 1.540497,-5.053505 2,-7c0.513733,-2.17625 1.292908,-3.292892 2,-4c0.707092,-0.707108 1,-1 2,-1c1,0 2,0 3,0c1,0 1,1 1,2c0,1 0.458801,1.693436 1,3c0.38269,0.923882 0.458801,2.693436 1,4c0.38269,0.923882 0,2 0,4c0,2 0.540497,3.053505 1,5c0.513733,2.176254 2.486267,2.823746 3,5c0.229767,0.973251 0,2 0,4c0,1 1,2 1,4c0,1 0,2 0,3c0,1 0,2 0,3l0,1l0,1l0,1" id="svg_23" stroke-linecap="round" stroke-linejoin="null" stroke-dasharray="null" stroke-width="5" stroke="#000000" fill="none"/>
  <path d="m325,79c0,0 1,0 2,0c1,0 2,0 4,0c2,0 4,0 5,0l1,0l1,0l1,0" id="svg_24" stroke-linecap="round" stroke-linejoin="null" stroke-dasharray="null" stroke-width="5" stroke="#000000" fill="none"/>
  <path d="m134,112c0,0 1,0 2,0c1,0 2.152237,0.765366 4,0c1.306564,-0.541199 3,-1 6,-1c5,0 17.007309,-0.468063 32,0c16.023407,0.500244 32.971207,1.499634 46,2c8.993378,0.34539 17,0 22,0c4,0 7,0 12,0c3,0 5,0 7,0c2,0 3,0 6,0c1,0 3,0 4,0c3,0 9,0 13,0c4,0 7,0 10,0c4,0 6,0 8,0c2,0 3,0 4,0c2,0 4,0 6,0c2,0 3,0 4,0c1,0 2,0 3,0c1,0 2,0 3,0c1,0 2,0 3,0c1,0 2,0 3,0c1,0 2.292908,0.707108 3,0c0.707092,-0.707108 1,-1 2,-1c1,0 2.878571,-0.493462 6,-1c0.987091,-0.160179 3,-1 4,-2l1,0l1,-1" id="svg_25" stroke-linecap="round" stroke-linejoin="null" stroke-dasharray="null" stroke-width="5" stroke="#000000" fill="none"/>
 </g>
</svg>